<svg width="24" height="24" viewBox="0 0 24 24" fill="none" xmlns="http://www.w3.org/2000/svg">
<g id="Icon/Arrow">
<path id="Icon-Arrow-Down" fill-rule="evenodd" clip-rule="evenodd" d="M10.7095 5.29238C10.8995 5.49238 10.9995 5.74238 10.9995 6.00238C10.9995 6.26238 10.8995 6.51238 10.7095 6.71238L6.40945 11.0024L19.9995 11.0024C20.5495 11.0024 20.9995 11.4524 20.9995 12.0024C20.9995 12.5524 20.5495 13.0024 19.9995 13.0024L6.40945 13.0024L10.7095 17.2924C11.0995 17.6824 11.0995 18.3224 10.7095 18.7124C10.3195 19.1024 9.67945 19.1024 9.28945 18.7124L3.28945 12.7124C3.19945 12.6224 3.12945 12.5124 3.07945 12.3924C3.05945 12.3424 3.03945 12.3024 3.03945 12.2524C2.98945 12.0924 2.98945 11.9124 3.03945 11.7524C3.03945 11.7024 3.05945 11.6624 3.07945 11.6124C3.12945 11.4924 3.19945 11.3824 3.28945 11.2924L9.28945 5.29238C9.67945 4.90238 10.3195 4.90238 10.7095 5.29238Z" fill="#313037"/>
</g>
</svg>
